<svg id="Layer_1" viewBox="0 0 512 512" width = "16" xmlns="http://www.w3.org/2000/svg" data-name="Layer 1"><path d="m25 259h30v177h-30z" fill="#d4e1f4"/><g fill="#0635c9"><path d="m492.258 256.491-83.051-161.4a6 6 0 0 0 -5.335-3.255h-44.2v12h40.541l76.877 149.4h-136.385a6 6 0 0 0 -5.162 2.941l-20.354 34.348h-118.381l-20.354-34.348a6 6 0 0 0 -5.162-2.941h-136.38l76.877-149.4h40.878v-12h-44.539a6 6 0 0 0 -5.335 3.255l-83.051 161.4a5.972 5.972 0 0 0 -.668 2.744v176.79a6 6 0 0 0 6 6h461.849a6 6 0 0 0 6-6v-176.789a5.972 5.972 0 0 0 -.668-2.744zm-11.335 173.534h-449.846v-164.789h136.8l20.354 34.347a6 6 0 0 0 5.161 2.942h125.216a6 6 0 0 0 5.162-2.942l20.354-34.347h136.8z"/><path d="m338.292 330.436h-164.584a6 6 0 0 0 -6 6v55.955a6 6 0 0 0 6 6h164.584a6 6 0 0 0 6-6v-55.955a6 6 0 0 0 -6-6zm-6 55.955h-152.584v-43.955h152.584z"/><path d="m50.206 284.222h12v14.778h-12z"/><path d="m50.206 310.823h12v85.177h-12z"/></g><path d="m415.765 253.236h12v-62.812a6 6 0 0 0 -6-6h-26.385v-61.859a6 6 0 0 0 -6-6h-24.38v-40.59a6 6 0 0 0 -6-6h-206a6 6 0 0 0 -6 6v40.59h-24.38a6 6 0 0 0 -6 6v61.859h-26.385a6 6 0 0 0 -6 6v62.812h12v-56.812h319.53zm-256.765-171.261h194v34.59h-194zm-30.384 46.59h254.764v55.859h-254.76z" fill="#1ae5be"/></svg>